<!--?xml version="1.0" encoding="utf-8"?-->
<!-- Generator: Adobe Illustrator 18.1.1, SVG Export Plug-In . SVG Version: 6.00 Build 0)  -->

<svg version="1.1" id="_x32_" xmlns="http://www.w3.org/2000/svg" xmlns:xlink="http://www.w3.org/1999/xlink" x="0px" y="0px" viewBox="0 0 512 512" style="width: 256px; height: 256px; opacity: 1;" xml:space="preserve">
<style type="text/css">
	.st0{fill:#4B4B4B;}
</style>
<g>
	<path class="st0" d="M138.983,256.774c-6.451,0-11.677,5.226-11.677,11.661c0,6.46,5.226,11.678,11.677,11.678
		c6.436,0,11.662-5.218,11.662-11.678C150.645,262,145.419,256.774,138.983,256.774z" style="fill: rgb(255, 255, 255);"></path>
	<path class="st0" d="M293.339,195.524c-0.424-0.161-1.04-0.403-1.774-0.685C292.415,195.17,292.967,195.379,293.339,195.524z" style="fill: rgb(255, 255, 255);"></path>
	<path class="st0" d="M293.339,195.524C293.956,195.766,294.093,195.823,293.339,195.524L293.339,195.524z" style="fill: rgb(255, 255, 255);"></path>
	<path class="st0" d="M154.532,194.048c-6.436,0-11.661,5.226-11.661,11.678c0,6.444,5.226,11.661,11.661,11.661
		c6.451,0,11.677-5.217,11.677-11.661C166.209,199.274,160.984,194.048,154.532,194.048z" style="fill: rgb(255, 255, 255);"></path>
	<path class="st0" d="M201.21,146.879c-6.436,0-11.661,5.226-11.661,11.67c0,6.451,5.226,11.678,11.661,11.678
		c6.452,0,11.678-5.226,11.678-11.678C212.887,152.104,207.662,146.879,201.21,146.879z" style="fill: rgb(255, 255, 255);"></path>
	<path class="st0" d="M310.806,146.879c-6.436,0-11.661,5.226-11.661,11.67c0,6.451,5.226,11.678,11.661,11.678
		c6.436,0,11.678-5.226,11.678-11.678C322.484,152.104,317.242,146.879,310.806,146.879z" style="fill: rgb(255, 255, 255);"></path>
	<path class="st0" d="M256,0C114.613,0,0,114.613,0,256s114.613,256,256,256s256-114.613,256-256S397.387,0,256,0z M384.452,355.492
		c3.645,0,6.612,2.96,6.612,6.613v31.524c0,3.654-2.967,6.613-6.612,6.613h-93.693c-3.436,0-6.194-2.775-6.194-6.21v-32.806
		c0-3.032,2.177-5.613,5.161-6.121c0,0,5.016-0.282,6.483-1.073c28.113-15.484,43.21-53.984,44.323-84.452
		c1.258-33.951-20.161-63.532-51.516-75.726c-0.032-0.016-0.048-0.016-0.08-0.032c-0.049-0.024-0.065-0.032-0.113-0.048
		c-10.436-4.032-21.613-6.032-32.807-6.032c-11.193,0-22.371,2-32.822,6.032c-0.048,0.016-0.064,0.025-0.096,0.048
		c-0.081,0.016-0.113,0.032-0.178,0.064c-31.306,12.21-52.678,41.758-51.436,75.694c1.129,30.468,16.226,68.968,44.323,84.452
		c1.468,0.79,6.484,1.073,6.484,1.073c3,0.508,5.178,3.088,5.178,6.121v32.806c0,3.435-2.774,6.21-6.194,6.21H127.58
		c-3.662,0-6.613-2.96-6.613-6.613v-31.524c0-3.653,2.951-6.613,6.613-6.613h16.258c-37.564-43.75-50.307-104.653-27.597-158.29
		c23.516-55.572,79.387-92.654,139.774-92.637c60.372-0.016,116.258,37.065,139.774,92.637
		c22.694,53.637,9.952,114.54-27.597,158.29H384.452z" style="fill: rgb(255, 255, 255);"></path>
	<path class="st0" d="M373.065,256.774c-6.452,0-11.678,5.226-11.678,11.661c0,6.46,5.226,11.678,11.678,11.678
		c6.435,0,11.661-5.218,11.661-11.678C384.726,262,379.5,256.774,373.065,256.774z" style="fill: rgb(255, 255, 255);"></path>
	<path class="st0" d="M369.161,205.726c0-6.452-5.226-11.678-11.661-11.678c-6.452,0-11.678,5.226-11.678,11.678
		c0,6.444,5.226,11.661,11.678,11.661C363.936,217.387,369.161,212.17,369.161,205.726z" style="fill: rgb(255, 255, 255);"></path>
</g>
</svg>
